<svg width="40" height="40" viewBox="0 0 40 40" fill="none" xmlns="http://www.w3.org/2000/svg">
<g clip-path="url(#clip0_364_3779)">
<path d="M39.0334 31.8334C38.2421 32.7834 37.0698 33.333 35.8334 33.3334H4.16673C2.93033 33.333 1.75798 32.7834 0.966736 31.8334L16.2501 19.1001L17.8334 20.1835C19.1377 21.0835 20.8625 21.0835 22.1668 20.1835L23.7501 19.1001L39.0334 31.8334Z" fill="#069A37"/>
<path d="M39.2667 8.4834L23.7501 19.1L22.1667 20.1834C20.8624 21.0834 19.1376 21.0834 17.8333 20.1834L16.25 19.1L0.733459 8.46668C1.51424 7.34082 2.79666 6.66848 4.16681 6.66668H35.8334C37.2097 6.65942 38.4985 7.34129 39.2667 8.4834Z" fill="#0FE055"/>
<path d="M16.25 19.1001L0.966713 31.8334C0.341167 31.0857 -0.00109781 30.1416 7.40628e-05 29.1668V10.8334C-0.00500405 9.98789 0.251167 9.16133 0.733432 8.4668L16.25 19.1001Z" fill="#0EA03F"/>
<path d="M40 10.8334V29.1667C40.0011 30.1416 39.6589 31.0857 39.0333 31.8334L23.75 19.1L39.2666 8.4834C39.7465 9.17293 40.0025 9.99332 40 10.8334Z" fill="#0EA03F"/>
</g>
<defs>
<clipPath id="clip0_364_3779">
<rect width="40" height="40" fill="white"/>
</clipPath>
</defs>
</svg>
