<svg width="20" height="20" viewBox="0 0 20 20" fill="none" xmlns="http://www.w3.org/2000/svg">
<path fill-rule="evenodd" clip-rule="evenodd" d="M3.28098 0C1.46895 0 0 1.46895 0 3.28098C0 3.95415 0.207062 4.61103 0.593098 5.1625L6.63846 13.7987C6.87378 14.1349 7 14.5353 7 14.9457V17.1568C7 19.2065 9.15696 20.5396 10.9902 19.6229C12.2219 19.0071 13 17.7481 13 16.371V14.9457C13 14.5353 13.1262 14.1349 13.3615 13.7987L19.4069 5.1625C19.7929 4.61102 20 3.95415 20 3.28098C20 1.46895 18.5311 0 16.719 0H3.28098ZM11 16.371C11 16.9906 10.6499 17.557 10.0958 17.8341C9.59234 18.0858 9 17.7197 9 17.1568V14.9457C9 14.125 8.74756 13.3242 8.27693 12.6518L2.23156 4.01558C2.08084 3.80027 2 3.5438 2 3.28098C2 2.57352 2.57352 2 3.28098 2H16.719C17.4265 2 18 2.57352 18 3.28098C18 3.54381 17.9192 3.80027 17.7684 4.01558L11.7231 12.6518C11.2524 13.3242 11 14.125 11 14.9457V16.371Z" fill="black"/>
</svg>
