<svg width="390" height="48" viewBox="0 0 390 48" fill="none" xmlns="http://www.w3.org/2000/svg">
<path d="M75.0059 0V25.3744C75.0059 37.2517 84.7237 46.9696 96.6011 46.9696H100.92C112.798 46.9696 122.515 37.2517 122.515 25.3744V0H75.0059Z" fill="#D9FAE4"/>
<path d="M265.881 0V25.3744C265.881 37.2517 275.599 46.9696 287.476 46.9696H291.795C303.673 46.9696 313.39 37.2517 313.39 25.3744V0H265.881Z" fill="#D9FAE4"/>
<path d="M123.057 0V25.3744C123.057 37.2517 132.774 46.9696 144.652 46.9696H148.971C160.848 46.9696 170.566 37.2517 170.566 25.3744V0H123.057Z" fill="#33AD5C"/>
<path d="M313.934 0V25.3744C313.934 37.2517 323.651 46.9696 335.529 46.9696H339.848C351.725 46.9696 361.443 37.2517 361.443 25.3744V0H313.934Z" fill="#33AD5C"/>
<path d="M-20.3145 0V25.3744C-20.3145 37.2517 -10.5966 46.9696 1.28077 46.9696H5.59983C17.4772 46.9696 27.1951 37.2517 27.1951 25.3744V0H-20.3145Z" fill="#D9FAE4"/>
<path d="M170.562 0V25.3744C170.562 37.2517 180.28 46.9696 192.158 46.9696H196.477C208.354 46.9696 218.072 37.2517 218.072 25.3744V0H170.562Z" fill="#D9FAE4"/>
<path d="M361.438 0V25.3744C361.438 37.2517 371.155 46.9696 383.033 46.9696H387.352C399.229 46.9696 408.947 37.2517 408.947 25.3744V0H361.438Z" fill="#D9FAE4"/>
<path d="M27.1973 25.3744C27.1973 37.2517 36.9151 46.9696 48.7925 46.9696H53.1115C53.1115 46.9696 53.1115 46.9696 53.6514 46.9696C65.5288 46.9696 75.2466 37.2517 75.2466 25.3744V0H53.6514H27.1973V25.3744Z" fill="#33AD5C"/>
<path d="M218.074 25.3744C218.074 37.2517 227.792 46.9696 239.669 46.9696H243.989C243.989 46.9696 243.988 46.9696 244.528 46.9696C256.406 46.9696 266.124 37.2517 266.124 25.3744V0H244.528H218.074V25.3744Z" fill="#33AD5C"/>
</svg>
