<svg width="40" height="40" viewBox="0 0 40 40" fill="none" xmlns="http://www.w3.org/2000/svg">
<path d="M33.45 28.4166L32.3333 25.0833C32.0016 24.0898 31.3663 23.2255 30.517 22.6125C29.6678 21.9994 28.6474 21.6686 27.6 21.6666H12.4C11.3526 21.6686 10.3322 21.9994 9.48293 22.6125C8.63365 23.2255 7.99833 24.0898 7.66665 25.0833L6.54998 28.4166C6.29929 29.1675 6.23048 29.9673 6.34924 30.75C6.46799 31.5327 6.7709 32.276 7.23304 32.9188C7.69519 33.5616 8.30336 34.0854 9.00751 34.4472C9.71165 34.809 10.4917 34.9985 11.2833 35H28.7166C29.5083 34.9985 30.2883 34.809 30.9925 34.4472C31.6966 34.0854 32.3048 33.5616 32.7669 32.9188C33.2291 32.276 33.532 31.5327 33.6507 30.75C33.7695 29.9673 33.7007 29.1675 33.45 28.4166Z" fill="#E7F6EC"/>
<path d="M28.8 7.35C27.7645 6.02193 26.4239 4.96333 24.8919 4.26406C23.3599 3.5648 21.6818 3.24552 20 3.33333C18.3183 3.24552 16.6402 3.5648 15.1082 4.26406C13.5762 4.96333 12.2355 6.02193 11.2 7.35C10.3754 8.52642 9.84387 9.88285 9.64963 11.3063C9.45539 12.7297 9.60409 14.179 10.0834 15.5333C11.85 20.8333 18.5334 27.5667 18.8167 27.85C18.9724 28.0045 19.1571 28.1267 19.3602 28.2096C19.5632 28.2926 19.7807 28.3346 20 28.3333C20.4291 28.3316 20.8411 28.1645 21.15 27.8667C21.4334 27.6 28.0167 21.2 29.9167 15.5333C30.396 14.179 30.5447 12.7297 30.3504 11.3063C30.1562 9.88285 29.6246 8.52642 28.8 7.35Z" fill="#009933"/>
<path d="M20 16.6667C19.3408 16.6667 18.6963 16.4712 18.1481 16.1049C17.6 15.7386 17.1727 15.218 16.9204 14.6089C16.6681 13.9999 16.6021 13.3296 16.7307 12.683C16.8594 12.0364 17.1768 11.4425 17.643 10.9763C18.1092 10.5101 18.7031 10.1927 19.3497 10.0641C19.9963 9.93543 20.6665 10.0014 21.2756 10.2537C21.8847 10.506 22.4053 10.9333 22.7716 11.4814C23.1379 12.0296 23.3334 12.6741 23.3334 13.3333C23.3334 14.2174 22.9822 15.0652 22.357 15.6904C21.7319 16.3155 20.8841 16.6667 20 16.6667Z" fill="#0FE055"/>
</svg>
