<svg width="18" height="20" viewBox="0 0 18 20" fill="none" xmlns="http://www.w3.org/2000/svg">
<path fill-rule="evenodd" clip-rule="evenodd" d="M8.99948 4.99982C6.23806 4.99982 3.99948 7.2384 3.99948 9.99982C3.99948 12.7612 6.23806 14.9998 8.99948 14.9998C11.7609 14.9998 13.9995 12.7612 13.9995 9.99982C13.9995 7.2384 11.7609 4.99982 8.99948 4.99982ZM5.66615 9.99982C5.66615 8.15887 7.15854 6.66649 8.99948 6.66649C10.8404 6.66649 12.3328 8.15887 12.3328 9.99982C12.3328 11.8408 10.8404 13.3332 8.99948 13.3332C7.15854 13.3332 5.66615 11.8408 5.66615 9.99982Z" fill="#444444"/>
<path fill-rule="evenodd" clip-rule="evenodd" d="M11.0843 1.69057C9.92189 0.566033 8.07708 0.566033 6.91464 1.69057C6.61939 1.9762 6.20885 2.10959 5.8021 2.05206C4.20069 1.82555 2.7082 2.9099 2.42876 4.50294C2.35778 4.90756 2.10405 5.25678 1.74117 5.44932C0.312458 6.20736 -0.257621 7.96188 0.452667 9.41492C0.633077 9.78399 0.633077 10.2157 0.452667 10.5847C-0.257622 12.0378 0.312458 13.7923 1.74117 14.5503C2.10405 14.7429 2.35778 15.0921 2.42876 15.4967C2.7082 17.0897 4.20069 18.1741 5.8021 17.9476C6.20885 17.8901 6.61939 18.0234 6.91464 18.3091C8.07708 19.4336 9.92189 19.4336 11.0843 18.3091C11.3796 18.0234 11.7901 17.8901 12.1969 17.9476C13.7983 18.1741 15.2908 17.0897 15.5702 15.4967C15.6412 15.0921 15.8949 14.7429 16.2578 14.5503C17.6865 13.7923 18.2566 12.0378 17.5463 10.5847C17.3659 10.2157 17.3659 9.78399 17.5463 9.41492C18.2566 7.96188 17.6865 6.20736 16.2578 5.44932C15.8949 5.25678 15.6412 4.90756 15.5702 4.50294C15.2908 2.9099 13.7983 1.82555 12.1969 2.05206C11.7901 2.10959 11.3796 1.9762 11.0843 1.69057ZM8.07347 2.88845C8.58978 2.38896 9.40919 2.38896 9.9255 2.88845C10.5902 3.53151 11.5145 3.83183 12.4303 3.7023C13.1416 3.60169 13.8045 4.08333 13.9286 4.7909C14.0884 5.70186 14.6596 6.48811 15.4766 6.92159C16.1112 7.25829 16.3644 8.03759 16.049 8.68298C15.6428 9.51389 15.6428 10.4858 16.049 11.3167C16.3644 11.9621 16.1112 12.7414 15.4766 13.0781C14.6596 13.5115 14.0884 14.2978 13.9286 15.2087C13.8045 15.9163 13.1416 16.398 12.4303 16.2973C11.5145 16.1678 10.5902 16.4681 9.9255 17.1112C9.40919 17.6107 8.58978 17.6107 8.07347 17.1112C7.40874 16.4681 6.48445 16.1678 5.56869 16.2973C4.85739 16.398 4.19448 15.9163 4.07036 15.2087C3.91056 14.2978 3.33932 13.5115 2.52232 13.0781C1.88773 12.7414 1.63452 11.9621 1.95001 11.3167C2.35618 10.4858 2.35618 9.51389 1.95001 8.68298C1.63452 8.03759 1.88773 7.25829 2.52232 6.92159C3.33932 6.48811 3.91056 5.70186 4.07036 4.7909C4.19448 4.08333 4.85739 3.60169 5.56869 3.7023C6.48445 3.83183 7.40874 3.53151 8.07347 2.88845Z" fill="#444444"/>
</svg>
