<svg width="40" height="40" viewBox="0 0 40 40" fill="none" xmlns="http://www.w3.org/2000/svg">
<g clip-path="url(#clip0_364_3763)">
<rect width="40" height="40" fill="#E7F6EC"/>
<path d="M27.91 15H12.09L3.74665 24.5283C3.48027 24.8322 3.33338 25.2226 3.33331 25.6267V31.6667C3.33331 32.5507 3.6845 33.3986 4.30962 34.0237C4.93474 34.6488 5.78259 35 6.66665 35H33.3333C34.2174 35 35.0652 34.6488 35.6903 34.0237C36.3155 33.3986 36.6666 32.5507 36.6666 31.6667V25.6267C36.6666 25.2226 36.5197 24.8322 36.2533 24.5283L27.91 15Z" fill="#009933"/>
<path d="M20 31.6666C23.6819 31.6666 26.6666 28.6819 26.6666 25C26.6666 21.3181 23.6819 18.3333 20 18.3333C16.3181 18.3333 13.3333 21.3181 13.3333 25C13.3333 28.6819 16.3181 31.6666 20 31.6666Z" fill="white"/>
<path d="M20 28.3334C21.841 28.3334 23.3334 26.841 23.3334 25C23.3334 23.1591 21.841 21.6667 20 21.6667C18.1591 21.6667 16.6667 23.1591 16.6667 25C16.6667 26.841 18.1591 28.3334 20 28.3334Z" fill="#009933"/>
<path d="M6.28499 21.63L19.655 35H33.3333C34.2174 35 35.0652 34.6488 35.6903 34.0237C36.3155 33.3986 36.6667 32.5507 36.6667 31.6667V25.6267C36.6666 25.2226 36.5197 24.8322 36.2533 24.5283L27.91 15H12.5L6.28666 21.6283H6.28333L6.28499 21.63Z" fill="url(#paint0_linear_364_3763)"/>
<path opacity="0.1" d="M20 22.0834C21.7667 22.0834 23.2017 23.4684 23.3117 25.2084C23.3167 25.1384 23.3334 25.0717 23.3334 25C23.3334 23.1617 21.8384 21.6667 20 21.6667C18.1617 21.6667 16.6667 23.1617 16.6667 25C16.6667 25.0717 16.6834 25.1384 16.6884 25.2084C16.74 24.3642 17.1111 23.5714 17.7262 22.9909C18.3413 22.4105 19.1543 22.086 20 22.0834Z" fill="#444444" fill-opacity="0.266667"/>
<path d="M39.3167 13.4133C34.1583 7.98833 27.2983 5 20 5C12.7 5 5.83833 7.98833 0.683333 13.4133C0.23 13.89 0 14.515 0 15.1417C0 15.77 0.228333 16.3983 0.683333 16.8767L4.525 20.9183C5.42833 21.8683 7.03167 21.8683 7.935 20.9183C9.21833 19.5683 10.445 18.4517 12.035 17.6117C12.83 17.2017 13.3433 16.3383 13.335 15.5217L13.3333 11.1417C17.52 9.80333 22.52 9.80167 26.6667 11.1417L26.675 15.4117C26.675 16.335 27.165 17.1783 27.9667 17.6183C29.5633 18.465 30.7683 19.5783 32.055 20.93C32.505 21.405 33.1117 21.6667 33.76 21.6667C34.0792 21.6669 34.3951 21.6017 34.6881 21.475C34.981 21.3482 35.2449 21.1628 35.4633 20.93L39.3167 16.8767C39.805 16.3633 40.0067 15.8333 40 15C39.9803 14.4039 39.7362 13.8372 39.3167 13.4133Z" fill="#00DE4A"/>
<path opacity="0.2" d="M13.3333 11.5583L13.3366 15.525V15.5217L13.3333 11.5583Z" fill="white"/>
<path opacity="0.1" d="M13.3333 10.725V11.1416C17.52 9.80164 22.52 9.80164 26.6666 11.1416V10.725C22.52 9.38497 17.52 9.38497 13.3333 10.725Z" fill="#444444" fill-opacity="0.266667"/>
<path d="M13.3333 12.5117V11.1417V12.5117ZM13.3616 5.84833L13.3333 5.85499V11.1417C14.7672 10.6942 16.2442 10.3992 17.74 10.2617L13.3616 5.84999V5.84833Z" fill="url(#paint1_linear_364_3763)"/>
<path opacity="0.2" d="M0.686662 13.83C5.84166 8.405 12.7033 5.41667 19.9983 5.41667C27.2983 5.41667 34.1567 8.405 39.315 13.83C39.6983 14.2333 39.9983 14.7583 39.9983 15.2783C40.0033 15.1867 39.9983 15.0983 39.9983 15C39.9786 14.4039 39.7346 13.8372 39.315 13.4133C34.155 7.98833 27.2967 5 19.9967 5C12.7017 5 5.84166 7.98833 0.686662 13.4133C0.233329 13.89 0.00332917 14.515 0.00332917 15.1417C0.00332917 15.2133 -0.00333749 15.2917 0.00332917 15.3617C0.00332917 14.7967 0.283329 14.2533 0.686662 13.8283V13.83Z" fill="white"/>
<path opacity="0.1" d="M26.6666 11.1417L26.675 15.4117C26.675 16.335 27.165 17.1783 27.9666 17.6183C29.5633 18.465 30.7683 19.5783 32.055 20.93C32.505 21.405 33.1116 21.6667 33.76 21.6667C34.0792 21.6669 34.395 21.6017 34.688 21.475C34.981 21.3482 35.2449 21.1628 35.4633 20.93L35.7166 20.6633L35.8566 20.5167C35.3933 20.9933 34.745 21.25 34.0833 21.25C33.42 21.25 32.8 20.9883 32.3383 20.5133C31.0216 19.1633 29.7883 18.0467 28.155 17.2017C27.7552 16.9884 27.4209 16.6704 27.1881 16.2816C26.9553 15.8929 26.8326 15.4481 26.8333 14.995L26.6666 11.1417ZM13.3333 11.1417L13.18 15.105C13.1866 15.9217 12.66 16.785 11.8466 17.195C10.22 18.0367 8.96664 19.15 7.64997 20.5017C6.72664 21.4517 5.08497 21.485 4.15997 20.535L4.34664 20.7383L4.52497 20.9183C5.42831 21.8683 7.03164 21.8683 7.93497 20.9183C9.21831 19.5683 10.445 18.4517 12.035 17.6117C12.83 17.2017 13.3433 16.3383 13.335 15.5217L13.3333 11.1417Z" fill="#444444" fill-opacity="0.266667"/>
<path d="M35.4633 20.93L39.3167 16.8767C39.805 16.3633 40.0067 15.8333 40 15C39.9803 14.4039 39.7362 13.8372 39.3167 13.4133C34.1583 7.98833 27.2983 5 20 5C12.7 5 5.83833 7.98833 0.683333 13.4133C0.23 13.89 0 14.515 0 15.1417C0 15.77 0.228333 16.3983 0.683333 16.8767L4.525 20.9183C4.99167 21.41 5.64667 21.635 6.295 21.6183L3.745 24.5283C3.47923 24.8325 3.33294 25.2228 3.33333 25.6267V31.6667C3.33333 32.5507 3.68452 33.3986 4.30964 34.0237C4.93477 34.6488 5.78261 35 6.66667 35H33.3333C34.2174 35 35.0652 34.6488 35.6904 34.0237C36.3155 33.3986 36.6667 32.5507 36.6667 31.6667V25.6267C36.6666 25.2226 36.5197 24.8322 36.2533 24.5283L33.7467 21.6667L33.76 21.6683C34.0792 21.6686 34.3951 21.6033 34.6881 21.4766C34.981 21.3499 35.2449 21.1644 35.4633 20.9317V20.93ZM26.6667 11.1417L26.675 15H13.3367L13.3333 11.1417C17.52 9.80333 22.52 9.80167 26.6667 11.1417Z" fill="url(#paint2_linear_364_3763)"/>
</g>
<defs>
<linearGradient id="paint0_linear_364_3763" x1="14.2567" y1="15.4733" x2="30.9667" y2="32.1833" gradientUnits="userSpaceOnUse">
<stop stop-color="#010101" stop-opacity="0.1"/>
<stop offset="1" stop-color="#010101" stop-opacity="0"/>
</linearGradient>
<linearGradient id="paint1_linear_364_3763" x1="11.9116" y1="7.74333" x2="15.4" y2="11.2317" gradientUnits="userSpaceOnUse">
<stop stop-color="#010101" stop-opacity="0.1"/>
<stop offset="1" stop-color="#010101" stop-opacity="0"/>
</linearGradient>
<linearGradient id="paint2_linear_364_3763" x1="0.758333" y1="12.9517" x2="37.705" y2="30.18" gradientUnits="userSpaceOnUse">
<stop stop-color="white" stop-opacity="0.2"/>
<stop offset="1" stop-color="white" stop-opacity="0"/>
</linearGradient>
<clipPath id="clip0_364_3763">
<rect width="40" height="40" fill="white"/>
</clipPath>
</defs>
</svg>
